<?xml version="1.0" encoding="utf-8"?>
<!-- Generator: Adobe Illustrator 25.2.0, SVG Export Plug-In . SVG Version: 6.00 Build 0)  -->
<svg version="1.1" id="Layer_1" xmlns="http://www.w3.org/2000/svg" xmlns:xlink="http://www.w3.org/1999/xlink" x="0px" y="0px"
	 viewBox="0 0 672.72998 667.049988" style="enable-background:new 0 0 672.72998 667.049988;" xml:space="preserve">
<style type="text/css">
	.st0{fill:none;stroke:#231F20;stroke-width:4;stroke-miterlimit:10;}
	.st1{fill:#231F20;stroke:#231F20;stroke-miterlimit:10;}
	.st2{fill:#231F20;stroke:#231F20;stroke-width:4;stroke-miterlimit:10;}
	.st3{fill:#231F20;}
</style>
<g id="Trace">
	<path class="st0" d="M332.679993,638.679993L331,578.98999c-6.100006-19.070007-14.450012-34.179993-26.619995-42.640015
		c-8.330017-0.409973-65.300003-8.48999-100.769989-31.52005c-2.419998,7.580048-111.110001-129.850006-115-157.419983
		c-4-27.869995,0-25,0-25S115,295.109985,118.080002,279.519989c5.18-25.899979,7-51.919968,44.229996-43.809982
		c0.558121-0.193298,1.078979-0.480774,1.540009-0.850006c-2.650009-5.109985-29.150009-56.139999-27.450012-61.229996
		C138.190002,168.25,85,82.020004,119.870003,69.520004s54.510002,60.320007,54.510002,60.320007s15,25.369995,33.790009,54.940002
		c0.080002-1.169998,31.290009,66,40.290009,74.339981c-7.149994-19.999985-23-52.439987-38.699997-84.549988
		c0,0-26.559998-87.199997-27.5-90.229996s-25.160004-42.369999-17.589996-59.390003s32.529999-13.239998,37.259995-8.709999
		s19.860001,28.57,21.190002,35.57c0,0,10.309998-26.169998,38.389984-9.650002
		c3.220032,1.889999,21.76001,45.000011,21.76001,45.000011c4.350006-19.75,15.830017-26.390003,36.309998-16.459991
		c0,0,10.299988,13.229996,21.920013,28.910004c0.869995,1.160004,1.73999,2.339996,2.609985,3.520004
		c14.390015,19.520004,29.76001,41.490005,29.76001,46.190002c0,0,66.76001,97.279984,65.440002,107
		c8.609985,7.779999,19,18,29.820007,29.470001c2.733337,2.899994,5.47998,5.873352,8.23999,8.920013
		c22.799988,25.160004,45.560028,54.330017,54.790009,76.130005c0,0,31.390015,61,31.390015,112.75v78.710052
		c0,0-38,31-66.76001,30.059998C485.170013,591.98999,343.640015,630.600037,332.679993,638.679993z"/>
	<path class="st1" d="M153.580002,312.690002c6.37001,1.100006,10.889999,4.059998,17.259995,7.880005l-1.37999,3.26001
		L153.580002,312.690002z"/>
	<path class="st1" d="M186.740005,365.769989c-3.070007-10.100006-7.070007-18.690002-11.289993-24.320007
		c-3-4.059998-7-6.779999-10.26001-9.059998c-14.649994-10.26001-31.470001-4.070007-31.779999-3.910004l2.610016,1.5
		c0,0,18.849991-0.059998,27.599991,6s14.460007,28.5,13.089996,29.839996L186.740005,365.769989z"/>
	<path class="st1" d="M157.860001,370.339996c0,0,35.410004-12.079987,53.360001,6.920013l-9.660004,0.880005
		c0,0-3.050003-8.899994-28.220001-6.519989S157.860001,370.339996,157.860001,370.339996z"/>
	<path class="st1" d="M502.230011,431.25c0,0-72.369995-2.540009-101.149994-8.390015
		c-3.450012-0.700012-5.779999-0.320007-7.790009-1.149994c0,0,32.160004,11.630005,44.299988,11.630005
		S482.480011,435.519989,502.230011,431.25z"/>
	<path class="st1" d="M323.519989,385.819977c23.619995,2.190002,79.48999-11.450012,79.48999-11.450012
		s-17.109985,14.150024-52.679993,14.150024S323.519989,385.819977,323.519989,385.819977z"/>
	<path class="st1" d="M320.850006,384.98999c-10.190002-3.540009-18.440002-7.619995-25.389984-16.850006
		c-0.610016-0.799988-3.390015-5.350006-30.360016-7.429993c-17.419998-1.339996-33.919998-26.130005-33.919998-26.130005
		s2,9.600006,5.800003,12.929993s13.800003,14.200012,19,15.5c5.199982,1.299988,26.800018,0,33.610016,4.48999
		s3.609985,6.519989,7.529968,9.420013C301.040009,379.820007,320.850006,384.98999,320.850006,384.98999z"/>
	<path class="st1" d="M175.600006,131.889999c-32.860001,0-31.929993,9.699997-31.929993,9.699997l13.369995-6.899994
		L175.600006,131.889999z"/>
	<path id="_borkedPath_" class="st1" d="M288.380005,323.829987c-0.22998-1.23999,6.52002,7.640015,7.940002,9.299988
		c8.929993,10.48999,34.330017,7.5,34.230011,8.450012c-7.235565,1.000549-14.574432,1.000549-21.809998,0
		C303.190002,340.899994,289.320007,329.049988,288.380005,323.829987z"/>
	<path class="st1" d="M482.75,340.599976c0,0-67-1.119995-87.220001,16.660004
		C395.529999,357.259979,443.619995,340.970001,482.75,340.599976z"/>
	<path class="st1" d="M482.75,411.039978c38.809998-7.589996,69.799988,10.670013,69.799988,10.670013l2.869995,9.679993
		c0,0-19.51001-14.619995-40.350037-17.48999C488,410.160004,482.75,411.039978,482.75,411.039978z"/>
	<path class="st1" d="M313.459991,156.669998c-7.059998-1.410004-19.880005,9.220001-17.869995,10.610001l8.829987-6.889999
		L313.459991,156.669998z"/>
	<path class="st1" d="M325.190002,184.520004c-9.600006,13.059998-18.920013,7-19.420013,6.820007l9.709991-1.729996
		L325.190002,184.520004z"/>
	<path class="st1" d="M345.579987,174.520004c0,0,13-15.300003,23.920013-9.330002l-12.5,2.400009L345.579987,174.520004z"/>
	<path class="st1" d="M380,172.350006c-0.809998,8.610001-22.790009,16.660004-26.390015,14.100006
		c0,0,14.410004-4.729996,15.329987-5.059998S380,172.350006,380,172.350006z"/>
	<path class="st1" d="M206.119995,98.940002c0,1.320007,19.160004-0.789993,19.770004-4c0,0-9.899994,1.479996-10.910004,1.589996
		S206.119995,98.940002,206.119995,98.940002z"/>
	<path class="st1" d="M255.220001,84.37001c6.389984,3.160004,17.209991,0,19.769989-4c0,0-9.899963,1.479996-10.909973,1.589996
		S255.220001,84.37001,255.220001,84.37001z"/>
	<path class="st1" d="M253.279999,169.75c-7,0.699997-9.360001,5.100006-9.360001,5.100006L253.279999,169.75z"/>
	<path class="st1" d="M268.070007,178.360001c-5.77002-2.880005-27.550003,7.899994-25.589996,9.460007L268.070007,178.360001z"/>
	<path class="st1" d="M186.589996,194.930008c0,0,6.940002-7.880005,22.5-3l-12.779999,0.720001L186.589996,194.930008z"/>
	<path class="st1" d="M192.119995,203.360001c1.330002,2.730011,19.330002,1.109985,15.649994-7.609985
		c-1.361908,2.438629-3.462814,4.381958-6,5.549988C199.630005,202.800003,195.929993,203.12001,192.119995,203.360001z"/>
	<path class="st1" d="M223.119995,51.799999c0,0,42.330017,106.880005,46.25,106c0,0,18.190002,36.220001,19,42.320007
		s12.809998,51.139984,12,53.660004l-2,1.609985c0,0-12.369995-46.679993-12.549988-52.779999
		s-26.890015-48.270004-45.169998-95.470001c-17.149994-44.270008-17.889999-48.000004-17.889999-48.000004L223.119995,51.799999z"
		/>
	<polygon class="st1" points="256.940002,265.950012 280.940002,267.059998 287.220001,265.950012 281.869995,268.529999 
		259.440002,267.890015 	"/>
	<polygon class="st1" points="315.369995,252.039993 302.269989,252.929993 298.480011,258.100006 	"/>
	<polygon class="st1" points="279.859985,265.950012 296.890015,258.579987 295.700012,260.070007 283.070007,265.950012 	"/>
	<path class="st1" d="M358.869995,255.069992l61.320007,0.890015l19.119995,0.36998l38.059998,38.390015
		c0,0-45.75-34.859985-55.559998-34.290009L358.869995,255.069992z"/>
	<path class="st1" d="M435,284.339996c0.51001,0,34.149994,1.459991,34.149994,1.459991l8.23999,8.920013l-18.579987-6.519989
		L435,284.339996z"/>
	<path class="st2" d="M245.649994,263.709991c11.089996,3.690002,26.440002,13.48999,31.480011,23.619995
		c8.829987,17.720001,16.119995,21.420013,11.25,36.5c-0.5-0.820007-3.610016-18-11.350037-31.329987
		c-6.72998-11.589996-17.719971-19.480011-23.929993-21.25c-7-2-26.130005-14.429993-49.910004,9.5
		C203.190002,280.75,223.449997,256.339996,245.649994,263.709991z"/>
	<path class="st1" d="M163.850006,234.840012c0.87999,0,16.12999,10.230011,16.12999,55.499985l-8.069992,47.23999l-3.660004-3
		l1.209991-10.75l1.380005-3.26001c0,0,6.719986-33.51001,4.119995-52
		C173.150421,256.78891,169.395966,245.390396,163.850006,234.840012z"/>
	<path class="st3" d="M283.27002,87.169998c-3.410034,10,24.419983,45.419998,36.159973,63.610001
		c13.640015,21.130005,17.48999,40.190002,20.179993,48.000015c8.440002,24.570007,16.799988,48.290009,23.540009,56.679993
		c-0.85849-11.801453-3.425262-23.415863-7.619995-34.480011l-13.450012-30.619995
		c-4.540009-19.540009-11.779999-36.199997-22.869995-48.740005C308.51001,121.25,296.820007,102.610001,283.27002,87.169998z"/>
	<path class="st1" d="M341.5,99.62001c0,0-9.380005,3.720001-9.660004,3.720001s-7.089996,6.679993-10.059998,9.770004
		c-0.23999,0.25,2.209991-0.149994,2.5-0.350006c4-2.699997,11.149994-8.339996,11.359985-8.399994l8.470001-1.220001
		L341.5,99.62001z"/>
</g>
</svg>
